# xmcd
#
# Track frame offsets: 
#        150
#        20421
#        42235
#        62602
#        81726
#        95236
#        119258
#        139390
#        157901
#        177155
#        204996
#        225111
#        251901
#
# Disc length: 3671 seconds
#
# Revision: 9
# Processed by: cddbd v1.5.1PL0 Copyright (c) Steve Scherf et al.
# Submitted via: ExactAudioCopy v0.95a5
#
DISCID=ae0e550d
DTITLE=John Mayall and Friends - Along For The Ride
DYEAR=2001
DGENRE=Blues
TTITLE0=A World Of Hurt
TTITLE1=Along For The Ride
TTITLE2=Put It Right Back
TTITLE3=That's Why I Love You So
TTITLE4=Yo Yo Man
TTITLE5=If I Don't Get Home
TTITLE6=Testify
TTITLE7=Early In The Morning
TTITLE8=Something About My Baby
TTITLE9=So Many Roads
TTITLE10=World War Blues
TTITLE11=California
TTITLE12=She Don't Play By The Rules
EXTD=
EXTT0=
EXTT1=
EXTT2=
EXTT3=
EXTT4=
EXTT5=
EXTT6=
EXTT7=
EXTT8=
EXTT9=
EXTT10=
EXTT11=
EXTT12=
PLAYORDER=
